<?xml version="1.0" encoding="iso-8859-1"?>
<!-- Generator: Adobe Illustrator 20.1.0, SVG Export Plug-In . SVG Version: 6.00 Build 0)  -->
<svg version="1.1" id="Layer_1" xmlns="http://www.w3.org/2000/svg" xmlns:xlink="http://www.w3.org/1999/xlink" x="0px" y="0px"
	 viewBox="0 0 80 80" style="enable-background:new 0 0 80 80;" xml:space="preserve">
<g>
	<rect style="fill:none;" width="80" height="80"/>
	<g id="Sign_Out">
		<path style="fill:#39BFC9;stroke:#39BFC9;stroke-width:0.25;stroke-miterlimit:10;" d="M38.511,61.004H19.162V19.328h19.349
			c0.822,0,1.488-0.667,1.488-1.488c0-0.822-0.667-1.488-1.488-1.488H17.674c-0.822,0-1.488,0.667-1.488,1.488v44.653
			c0,0.822,0.667,1.488,1.488,1.488h20.838c0.822,0,1.488-0.667,1.488-1.488S39.333,61.004,38.511,61.004z"/>
		<path style="fill:#39BFC9;stroke:#39BFC9;stroke-width:0.25;stroke-miterlimit:10;" d="M63.383,39.127L53.113,28.71
			c-0.582-0.588-1.524-0.586-2.105,0c-0.582,0.586-0.582,1.539,0,2.125l7.74,7.851H28.097c-0.822,0-1.488,0.673-1.488,1.503
			s0.667,1.503,1.488,1.503h30.651l-7.74,7.851c-0.582,0.588-0.582,1.539,0,2.125c0.582,0.588,1.524,0.588,2.105,0l10.269-10.417
			C63.956,40.674,63.962,39.705,63.383,39.127z"/>
	</g>
</g>
</svg>
