<?xml version="1.0" encoding="iso-8859-1"?>
<!-- Generator: Adobe Illustrator 20.1.0, SVG Export Plug-In . SVG Version: 6.00 Build 0)  -->
<svg version="1.1" id="Layer_1" xmlns="http://www.w3.org/2000/svg" xmlns:xlink="http://www.w3.org/1999/xlink" x="0px" y="0px"
	 viewBox="0 0 96 80" style="enable-background:new 0 0 96 80;" xml:space="preserve">
<g>
	<g>
		<path style="fill:#39BFC9;fill-width:2;fill-linecap:round;fill-linejoin:round;fill-miterlimit:10;" d="
			M84,46.294c0-6.423-3.588-12.159-9.201-15.99c0.393,1.788,0.624,3.615,0.624,5.496c0,14.52-12.327,26.631-28.566,29.232
			c3.435,1.383,7.278,2.196,11.379,2.196c3.855,0,7.515-0.708,10.803-1.95c4.176,1.407,8.724,1.776,12.492,1.776
			c-1.965-2.337-3.315-4.653-4.293-6.675C81.426,56.665,84,51.724,84,46.294z"/>
		<path style="fill:#39BFC9;fill-width:2;fill-linecap:round;fill-linejoin:round;fill-miterlimit:10;" d="
			M68.673,35.8c0-12.711-12.681-23.028-28.335-23.028C24.684,12.772,12,23.086,12,35.8c0,6.627,3.468,12.591,8.994,16.788
			c-1.038,2.685-2.796,6.189-5.778,9.774c5.661,0,12.945-0.738,18.564-4.188c2.112,0.411,4.299,0.642,6.561,0.642
			C55.989,58.813,68.673,48.508,68.673,35.8z"/>
	</g>
	<rect style="fill:none;" width="96" height="80"/>
</g>
</svg>
