<?xml version="1.0" encoding="iso-8859-1"?>
<!-- Generator: Adobe Illustrator 20.1.0, SVG Export Plug-In . SVG Version: 6.00 Build 0)  -->
<svg version="1.1" id="Layer_1" xmlns="http://www.w3.org/2000/svg" xmlns:xlink="http://www.w3.org/1999/xlink" x="0px" y="0px"
	 viewBox="0 0 32.437 32.137" style="enable-background:new 0 0 32.437 32.137;" xml:space="preserve">
<g>
	<rect y="0.137" style="fill:none;" width="32.437" height="32"/>
	<g>
		<g>
			<path style="fill:#7BCCD2;fill:#7BCCD2;fill-width:0.5;fill-miterlimit:10;" d="M16.226,0.25
				c-4.814-0.004-8.721,3.896-8.725,8.71c-0.004,4.814,3.896,8.721,8.71,8.725c4.814,0.004,8.721-3.896,8.725-8.71
				C24.94,4.161,21.04,0.254,16.226,0.25z M16.212,16.959c-4.406-0.004-7.988-3.592-7.985-7.998
				c0.004-4.406,3.592-7.988,7.998-7.985c4.406,0.004,7.988,3.592,7.985,7.998C24.206,13.381,20.618,16.963,16.212,16.959z"/>
			<polygon style="fill:#7BCCD2;fill:#7BCCD2;fill-width:0.5;fill-miterlimit:10;" points="16.218,9.694 11.859,9.691 
				11.858,10.417 16.944,10.421 16.95,3.186 16.223,3.186 			"/>
		</g>
	</g>
</g>
</svg>
