<?xml version="1.0" encoding="iso-8859-1"?>
<!-- Generator: Adobe Illustrator 20.1.0, SVG Export Plug-In . SVG Version: 6.00 Build 0)  -->
<svg version="1.1" id="Layer_1" xmlns="http://www.w3.org/2000/svg" xmlns:xlink="http://www.w3.org/1999/xlink" x="0px" y="0px"
	 viewBox="0 0 63.477 62.932" style="enable-background:new 0 0 63.477 62.932;" xml:space="preserve">
<g>
	<g id="search">
		<g>
			<path style="fill:#39BFC9;fill:#39BFC9;fill-width:1.5;fill-miterlimit:10;" d="M52.498,46.825L41.347,35.674
				c-0.464-0.464-1.029-0.697-1.593-0.697c-0.202,0-0.401,0.041-0.597,0.1L37.58,33.5c1.858-2.513,2.97-5.611,2.97-8.978
				c0-8.359-6.774-15.134-15.134-15.134s-15.134,6.774-15.134,15.134s6.774,15.134,15.134,15.134c3.366,0,6.465-1.112,8.978-2.97
				l1.576,1.576c-0.225,0.748-0.033,1.56,0.597,2.19l11.151,11.151c0.464,0.464,1.029,0.697,1.593,0.697s1.129-0.233,1.593-0.697
				l1.593-1.593C53.427,49.082,53.427,47.754,52.498,46.825z M25.416,38.86c-7.905,0-14.337-6.432-14.337-14.337
				s6.432-14.337,14.337-14.337s14.337,6.432,14.337,14.337S33.322,38.86,25.416,38.86z M36.355,37.521l-1.317-1.317
				c0.75-0.619,1.441-1.309,2.06-2.06l1.317,1.317c-0.086,0.067-0.173,0.131-0.254,0.213l-1.593,1.593
				C36.486,37.348,36.422,37.435,36.355,37.521z M51.935,49.448l-1.593,1.593c-0.303,0.303-0.66,0.464-1.03,0.464
				s-0.727-0.16-1.03-0.464L37.131,39.89c-0.616-0.616-0.616-1.444,0-2.06l1.593-1.593c0.303-0.303,0.66-0.464,1.03-0.464
				c0.37,0,0.727,0.16,1.03,0.464l11.151,11.151C52.551,48.004,52.551,48.832,51.935,49.448z"/>
			<g>
				<path style="fill:none;fill:#39BFC9;fill-width:2;fill-miterlimit:10;" d="M25.596,34.911
					c-5.638,0-10.208-4.571-10.208-10.208s4.571-10.208,10.208-10.208s10.208,4.571,10.208,10.208S31.234,34.911,25.596,34.911z"/>
			</g>
		</g>
	</g>
	<rect style="fill:none;" width="63.477" height="62.932"/>
</g>
</svg>
