<?xml version="1.0" encoding="iso-8859-1"?>
<!-- Generator: Adobe Illustrator 20.1.0, SVG Export Plug-In . SVG Version: 6.00 Build 0)  -->
<svg version="1.1" id="Layer_1" xmlns="http://www.w3.org/2000/svg" xmlns:xlink="http://www.w3.org/1999/xlink" x="0px" y="0px"
	 viewBox="0 0 96 96" style="enable-background:new 0 0 96 96;" xml:space="preserve">
<g id="Icn_x5F_User">
	<g>
		<path style="fill:#E4E4E4;" d="M48.065,54.615c5.035,0,9.131-4.103,9.131-9.145V41.02c0-5.042-4.096-9.145-9.131-9.145
			c-5.035,0-9.131,4.103-9.131,9.145v4.451C38.935,50.513,43.031,54.615,48.065,54.615z M40.463,45.471V41.02
			c0-4.198,3.411-7.614,7.603-7.614c4.192,0,7.604,3.416,7.604,7.614v4.451c0,4.198-3.411,7.614-7.604,7.614
			C43.874,53.085,40.463,49.669,40.463,45.471z"/>
		<path style="fill:#E4E4E4;" d="M60.429,53.545l-3.484-0.976c-0.195-0.055-0.401-0.031-0.579,0.068
			c-0.179,0.1-0.308,0.264-0.363,0.462c-0.055,0.196-0.03,0.403,0.07,0.581c0.1,0.179,0.264,0.307,0.46,0.361l3.479,0.975
			c1.715,0.493,2.585,1.303,2.585,2.406v2.795c0,1.312-1.065,2.378-2.374,2.378H35.776c-1.309,0-2.374-1.066-2.374-2.378v-2.795
			c0-0.408,0-1.652,2.577-2.405l3.649-1.011c0.406-0.112,0.644-0.535,0.532-0.94c-0.111-0.405-0.532-0.646-0.94-0.534l-3.658,1.015
			c-3.048,0.889-3.688,2.599-3.688,3.876v2.795c0,2.154,1.75,3.907,3.901,3.907h24.448c1.041,0,2.02-0.407,2.757-1.146
			c0.738-0.739,1.144-1.72,1.144-2.762v-2.795C64.125,56.14,63.484,54.425,60.429,53.545z"/>
	</g>
	<rect style="fill:none;" width="96" height="96"/>
</g>
</svg>
