<?xml version="1.0" encoding="iso-8859-1"?>
<!-- Generator: Adobe Illustrator 20.1.0, SVG Export Plug-In . SVG Version: 6.00 Build 0)  -->
<svg version="1.1" id="Layer_1" xmlns="http://www.w3.org/2000/svg" xmlns:xlink="http://www.w3.org/1999/xlink" x="0px" y="0px"
	 viewBox="0 0 80 80" style="enable-background:new 0 0 80 80;" xml:space="preserve">
<g>
	<rect style="fill:none;" width="80" height="80"/>
	<g>
		<path style="fill:#39BFC9;fill-width:2;fill-miterlimit:10;" d="M27.293,19.391
			c-3.165,2.781-5.276,6.13-6.297,10.176c1.027-0.103,2.017-0.267,3.01-0.289c1.778-0.039,2.643,0.867,2.643,2.644
			c-0.001,7.227-0.005,14.453-0.002,21.68c0.002,5.502,3.545,9.631,8.994,10.46c0.625,0.095,1.274,0.082,1.907,0.044
			c0.175-0.011,0.406-0.264,0.488-0.458c0.81-1.922,2.632-3.086,4.578-2.894c2.064,0.204,3.648,1.636,4.054,3.666
			c0.444,2.22-0.86,4.411-3.038,5.104c-2.206,0.703-4.578-0.333-5.456-2.462c-0.243-0.588-0.532-0.732-1.132-0.733
			c-6.222-0.015-11.216-4.141-12.399-10.22c-0.121-0.619-0.17-1.252-0.257-1.913c-1.806-0.09-3.464-0.565-4.909-1.636
			c-2.226-1.651-3.475-3.882-3.506-6.64c-0.051-4.485-0.125-8.981,0.12-13.455c0.349-6.399,3.107-11.761,7.851-16.039
			c4.935-4.449,10.801-6.435,17.422-6.138c10.953,0.492,20.467,8.896,22.265,19.753c0.364,2.196,0.367,4.461,0.419,6.697
			c0.067,2.88,0.019,5.762,0.016,8.643c-0.005,4.547-2.915,7.999-7.401,8.698c-0.669,0.104-1.43,0.04-2.066-0.181
			c-0.85-0.295-1.242-1.075-1.243-1.971c-0.011-6.801-0.015-13.603,0.002-20.404c0.003-1.334,0.971-2.27,2.317-2.243
			c1.075,0.022,2.148,0.164,3.311,0.261c-1.002-4.008-3.109-7.381-6.284-10.15c-1.628,1.268-3.198,1.058-4.914,0.176
			c-5.21-2.677-10.48-2.642-15.676,0.045C30.431,20.478,28.9,20.622,27.293,19.391z"/>
		<path style="fill:#39BFC9;fill-width:2;fill-miterlimit:10;" d="M14.978,37.812c0,1.32,0,2.64,0,3.96
			c0.001,1.604-0.44,2.238-1.674,2.408c-1.374,0.189-2.768-0.643-3.119-1.888c-0.101-0.359-0.168-0.74-0.17-1.112
			c-0.014-2.286-0.026-4.572,0.001-6.858c0.029-2.414,1.85-3.2,3.424-2.988c1.022,0.138,1.523,0.804,1.534,1.953
			C14.99,34.795,14.978,36.303,14.978,37.812z"/>
		<path style="fill:#39BFC9;fill-width:2;fill-miterlimit:10;" d="M65.019,37.735c0-1.367,0-2.734,0-4.101
			c-0.001-0.819,0.025-1.661,0.875-2.084c0.935-0.465,1.896-0.328,2.767,0.194c0.927,0.557,1.311,1.458,1.318,2.51
			c0.015,2.333,0.041,4.667-0.001,7c-0.043,2.385-1.975,3.159-3.504,2.871c-1.009-0.19-1.436-0.758-1.449-1.866
			C65.006,40.752,65.019,39.243,65.019,37.735z"/>
	</g>
</g>
</svg>
