<?xml version="1.0" encoding="iso-8859-1"?>
<!-- Generator: Adobe Illustrator 20.1.0, SVG Export Plug-In . SVG Version: 6.00 Build 0)  -->
<svg version="1.1" id="Layer_1" xmlns="http://www.w3.org/2000/svg" xmlns:xlink="http://www.w3.org/1999/xlink" x="0px" y="0px"
	 viewBox="0 0 64 64" style="enable-background:new 0 0 64 64;" xml:space="preserve">
<g>
	<rect style="fill:none;" width="64" height="64"/>
	<g>
		<path style="fill:#F5F6F8;" d="M32.01,40.517c-4.182,0-7.588-3.406-7.588-7.588V14.836c0-4.182,3.406-7.588,7.588-7.588
			c4.182,0,7.588,3.406,7.588,7.588v18.093C39.598,37.11,36.192,40.517,32.01,40.517z M32.01,9.399
			c-2.999,0-5.436,2.438-5.436,5.436v18.093c0,2.999,2.438,5.436,5.436,5.436l0,0c2.999,0,5.436-2.438,5.436-5.436V14.836
			C37.446,11.837,35.009,9.399,32.01,9.399z"/>
		<path style="fill:#F5F6F8;" d="M32.01,47.024c-8.047,0-14.595-6.548-14.595-14.595c0-0.592,0.479-1.071,1.071-1.071
			s1.071,0.479,1.071,1.071c0,6.864,5.579,12.443,12.443,12.443s12.443-5.579,12.443-12.443c0-0.592,0.479-1.071,1.071-1.071
			s1.071,0.479,1.071,1.071C46.605,40.476,40.057,47.024,32.01,47.024z"/>
		<path style="fill:#F5F6F8;" d="M32.01,56.753c-0.592,0-1.071-0.39-1.071-0.872V45.754c0-0.481,0.479-0.872,1.071-0.872
			c0.592,0,1.071,0.39,1.071,0.872v10.127C33.081,56.362,32.602,56.753,32.01,56.753z"/>
	</g>
</g>
</svg>
