<?xml version="1.0" encoding="iso-8859-1"?>
<!-- Generator: Adobe Illustrator 20.1.0, SVG Export Plug-In . SVG Version: 6.00 Build 0)  -->
<svg version="1.1" id="Layer_1" xmlns="http://www.w3.org/2000/svg" xmlns:xlink="http://www.w3.org/1999/xlink" x="0px" y="0px"
	 viewBox="0 0 80 80" style="enable-background:new 0 0 80 80;" xml:space="preserve">
<g>
	<rect style="fill:none;" width="80" height="80"/>
	<g>
		<g>
			<path style="fill:#39BFC9;" d="M52.357,63.667c-0.253-0.3-0.531-0.582-0.754-0.902c-1.619-2.324-3.226-4.657-4.839-6.986
				c-0.124-0.179-0.255-0.353-0.41-0.567c-0.904,0.86-1.91,1.308-3.148,1.037c-1.209-0.265-1.96-1.045-2.419-2.133
				c-0.957,0.183-1.877,0.44-2.811,0.522c-4.653,0.413-8.338-1.328-11.035-5.127c-0.323-0.454-0.632-0.601-1.176-0.602
				c-2.011-0.004-4.05,0.124-6.027-0.157c-5.929-0.843-10.359-6.705-9.667-12.642c0.559-4.797,3.123-8.109,7.562-9.994
				c0.239-0.101,0.478-0.319,0.608-0.545c2.362-4.121,5.918-6.194,10.656-6.292c0.294-0.006,0.644-0.142,0.864-0.335
				c1.388-1.215,2.936-2.138,4.729-2.581c0.347-0.086,0.861,0.011,1.142,0.226c2.78,2.122,5.618,2.19,8.511,0.189
				c0.281-0.195,0.7-0.289,1.048-0.275c9.627,0.385,16.707,4.848,21.279,13.321c0.235,0.436,0.545,0.855,0.901,1.2
				c2.877,2.784,3.47,7.11,1.386,10.529c-0.279,0.458-0.33,0.84-0.193,1.352c1.889,7.069-2.979,14.081-10.258,14.807
				c-0.195,0.019-0.388,0.056-0.637,0.092c0,1.508-0.023,2.988,0.011,4.466c0.014,0.61-0.135,1.083-0.674,1.397
				C55.457,63.667,53.907,63.667,52.357,63.667z M64.403,30.158c0.027,0.072,0.007-0.014-0.035-0.087
				c-4.179-7.262-10.438-11.158-18.819-11.598c-0.24-0.013-0.519,0.095-0.73,0.226c-3.289,2.04-6.543,1.996-9.794-0.097
				c-0.212-0.137-0.623-0.202-0.818-0.088c-1.12,0.652-2.264,1.289-3.274,2.091c-0.579,0.46-1.081,0.699-1.824,0.684
				c-4.028-0.078-7.089,1.634-9.069,5.149c-0.441,0.783-0.871,1.288-1.805,1.602c-4.067,1.368-6.828,6.055-6.208,10.277
				c0.774,5.27,4.863,8.768,10.193,8.713c1.55-0.016,3.099-0.051,4.649-0.082c0.525-0.011,0.935,0.134,1.2,0.644
				c1.017,1.955,2.542,3.412,4.559,4.274c2.912,1.245,5.817,1.377,8.633-0.341c0.455-0.278,0.91-0.163,1.296,0.148
				c0.39,0.315,0.493,0.746,0.235,1.189c-0.325,0.558-0.057,0.939,0.35,1.253c0.811,0.626,1.755,0.1,2.027-1.022
				c0.084-0.345,0.417-0.798,0.718-0.875c0.304-0.077,0.721,0.234,1.069,0.414c0.122,0.063,0.183,0.243,0.271,0.371
				c1.888,2.73,3.773,5.462,5.667,8.187c0.131,0.188,0.318,0.461,0.494,0.473c0.76,0.052,1.525,0.022,2.281,0.022
				c0-1.386,0-2.665,0-3.967c-0.282-0.057-0.546-0.088-0.795-0.164c-0.969-0.299-1.947-0.574-2.893-0.935
				c-0.522-0.199-0.677-0.681-0.478-1.217c0.189-0.506,0.71-0.723,1.254-0.541c0.209,0.07,0.407,0.175,0.615,0.249
				c3.742,1.332,7.236,0.891,10.251-1.744c2.991-2.615,3.946-5.975,3.086-9.853c-0.094-0.422-0.265-0.689-0.721-0.822
				c-5.773-1.685-11.132-0.847-15.99,2.712c-1.165,0.854-2.128,1.987-3.169,3.007c-0.457,0.448-0.987,0.546-1.415,0.207
				c-0.457-0.362-0.505-0.943-0.081-1.467c0.376-0.464,0.764-0.924,1.193-1.337c5.623-5.415,12.214-7.092,19.747-5.074
				c0.369,0.099,0.613,0.168,0.866-0.254c1.524-2.54,1.037-6.075-1.153-8.029c-0.129-0.115-0.338-0.214-0.501-0.203
				c-0.948,0.068-1.811,0.349-2.514,1.042c-0.482,0.475-1.077,0.486-1.472,0.089c-0.41-0.412-0.405-1.096,0.156-1.506
				C62.499,31.263,63.424,30.762,64.403,30.158z"/>
			<path style="fill:#39BFC9;" d="M25.207,35.237c-0.894,2.391-2.58,3.509-4.812,3.184c-1.202-0.175-2.146-0.797-2.817-1.805
				c-0.32-0.481-0.207-1.053,0.243-1.347c0.476-0.311,0.964-0.26,1.305,0.183c0.642,0.833,1.425,1.248,2.477,0.996
				c1.086-0.261,1.574-1.05,1.776-2.127c-1.011-0.768-1.811-1.73-2.156-2.991c-0.144-0.527-0.217-1.083-0.241-1.63
				c-0.027-0.611,0.352-0.985,0.905-1.008c0.558-0.023,0.896,0.317,1.019,0.913c0.133,0.642,0.232,1.323,0.527,1.892
				c0.743,1.435,2.427,2.133,4.006,1.772c1.608-0.367,2.725-1.688,2.899-3.311c0.042-0.397,0.23-0.894,0.524-1.123
				c0.612-0.478,1.41,0.065,1.435,0.907c0.074,2.57-2.051,5.097-4.681,5.478C26.84,35.332,26.035,35.237,25.207,35.237z"/>
			<path style="fill:#39BFC9;" d="M33.744,39.086c0.09-0.204,0.17-0.382,0.248-0.561c1.423-3.299,5.493-4.37,8.326-2.166
				c0.341,0.266,0.608,0.265,1.006,0.212c0.801-0.107,1.624-0.158,2.429-0.102c0.759,0.053,1.134,0.581,1.018,1.194
				c-0.11,0.58-0.61,0.882-1.339,0.728c-0.821-0.173-1.587-0.049-2.316,0.323c-0.588,0.3-1.037,0.18-1.466-0.307
				c-1.006-1.143-2.276-1.517-3.72-1.064c-1.455,0.457-2.22,1.532-2.415,3.028c-0.138,1.057-0.687,1.354-1.653,0.893
				c-2.053-0.979-4.265-0.38-5.552,1.502c-0.465,0.68-0.962,0.855-1.482,0.523c-0.528-0.336-0.578-0.938-0.137-1.626
				c1.393-2.17,4.034-3.226,6.653-2.661C33.47,39.029,33.596,39.055,33.744,39.086z"/>
			<path style="fill:#39BFC9;" d="M39.572,22.742c2.401,0.006,4.539,1.642,5.173,4.009c0.107,0.399,0.284,0.569,0.66,0.7
				c1.684,0.589,2.833,2.176,2.851,3.866c0.007,0.673-0.299,1.079-0.856,1.134c-0.6,0.059-0.978-0.284-1.083-0.984
				c-0.223-1.496-0.859-2.142-2.35-2.319c-0.729-0.087-0.941-0.534-0.994-1.178c-0.124-1.519-0.912-2.575-2.342-3.08
				c-2.18-0.77-4.405,0.751-4.593,3.122c-0.048,0.606-0.241,1.04-0.889,1.115c-0.674,0.078-1.106-0.418-1.071-1.19
				C34.215,25.001,36.61,22.735,39.572,22.742z"/>
			<path style="fill:#39BFC9;" d="M56.495,48.56c0.699,0.482,1.398,0.903,2.022,1.413c0.506,0.414,0.512,1.06,0.122,1.462
				c-0.378,0.39-0.937,0.381-1.427-0.023c-1.669-1.378-3.187-1.408-4.848-0.095c-0.529,0.418-1.104,0.404-1.472-0.038
				c-0.368-0.442-0.357-1.008,0.171-1.397c0.632-0.466,1.323-0.88,2.044-1.185c0.456-0.193,0.839-0.372,1.168-0.769
				c1.969-2.376,5.58-2.899,8.108-1.213c0.398,0.265,0.735,0.62,0.55,1.086c-0.127,0.319-0.47,0.647-0.792,0.764
				c-0.24,0.087-0.629-0.109-0.903-0.263C59.643,47.403,57.795,47.503,56.495,48.56z"/>
			<path style="fill:#39BFC9;" d="M54.334,27.197c2.391,0.044,4.33,1.597,4.865,3.85c0.056,0.235,0.091,0.48,0.09,0.721
				c-0.002,0.537-0.274,0.887-0.815,0.954c-0.559,0.069-0.937-0.182-1.085-0.74c-0.034-0.128-0.054-0.26-0.081-0.389
				c-0.241-1.167-0.95-1.944-2.063-2.296c-1.148-0.364-2.18-0.072-3.052,0.763c-0.08,0.076-0.146,0.167-0.226,0.242
				c-0.421,0.393-0.99,0.422-1.372,0.074c-0.408-0.371-0.461-0.9-0.077-1.366C51.52,27.79,52.836,27.215,54.334,27.197z"/>
			<path style="fill:#39BFC9;" d="M36.208,47.959c-1.281-0.077-2.448-0.602-3.278-1.766c-0.386-0.541-0.316-1.122,0.155-1.46
				c0.456-0.328,0.983-0.245,1.388,0.274c0.582,0.745,1.326,1.113,2.254,0.944c0.98-0.179,1.575-0.804,1.835-1.777
				c0.165-0.618,0.659-0.892,1.2-0.743c0.571,0.158,0.819,0.644,0.666,1.303C39.994,46.6,38.255,47.968,36.208,47.959z"/>
			<path style="fill:#39BFC9;" d="M52.37,34.426c1.43,0.029,2.677,0.512,3.719,1.494c0.515,0.485,0.576,1.092,0.173,1.517
				c-0.402,0.424-0.926,0.407-1.468-0.047c-1.587-1.327-3.193-1.353-4.799-0.078c-0.541,0.429-1.091,0.43-1.469,0.001
				c-0.407-0.46-0.334-1.012,0.219-1.505C49.776,34.889,50.993,34.445,52.37,34.426z"/>
			<path style="fill:#39BFC9;" d="M47.548,21.96c1.298,0.107,2.441,0.578,3.391,1.477c0.471,0.445,0.509,1.061,0.12,1.469
				c-0.386,0.404-0.923,0.414-1.419-0.016c-0.656-0.567-1.386-0.919-2.265-0.968c-0.681-0.038-1.072-0.45-1.043-1.031
				C46.361,22.303,46.846,21.932,47.548,21.96z"/>
		</g>
	</g>
</g>
</svg>
