<?xml version="1.0" encoding="iso-8859-1"?>
<!-- Generator: Adobe Illustrator 20.1.0, SVG Export Plug-In . SVG Version: 6.00 Build 0)  -->
<svg version="1.1" id="Layer_1" xmlns="http://www.w3.org/2000/svg" xmlns:xlink="http://www.w3.org/1999/xlink" x="0px" y="0px"
	 viewBox="0 0 64 64" style="enable-background:new 0 0 64 64;" xml:space="preserve">
<g>
	<g id="miu">
		<g id="Artboard-1" transform="translate(-791.000000, -227.000000)">
			<g id="slice" transform="translate(215.000000, 119.000000)">
			</g>
			<path id="editor-attachment-paper-clip" style="fill:#FFFFFF;" d="M820.966,280.456l20.603-22.672c0,0,7.768-8.548,0.166-15.457
				c-7.602-6.909-15.371,1.64-15.371,1.64l-20.603,22.672c-0.844,0.929,0.845,2.464,1.689,1.535l20.603-22.672
				c0,0,5.619-7.417,12.146-1.486c5.913,5.373-0.32,12.232-0.32,12.232l-20.603,22.672c0,0-3.869,4.257-8.092,0.419
				c-4.224-3.838-0.355-8.096-0.355-8.096l20.603-22.672c0,0,2.422-2.665,4.887-0.425c2.465,2.24,0.181,5.031,0.181,5.031
				l-19.59,21.557c-0.844,0.929,0.845,2.464,1.689,1.535l19.59-21.557c0,0,4.426-4.237-0.182-8.424
				c-4.155-3.776-8.265,0.748-8.265,0.748l-20.603,22.672c0,0-5.404,5.947,0.509,11.32
				C815.562,286.403,820.966,280.456,820.966,280.456z"/>
		</g>
	</g>
	<rect style="fill:none;" width="64" height="64"/>
</g>
</svg>
