<?xml version="1.0" encoding="iso-8859-1"?>
<!-- Generator: Adobe Illustrator 20.1.0, SVG Export Plug-In . SVG Version: 6.00 Build 0)  -->
<svg version="1.1" id="Layer_1" xmlns="http://www.w3.org/2000/svg" xmlns:xlink="http://www.w3.org/1999/xlink" x="0px" y="0px"
	 viewBox="0 0 96 80" style="enable-background:new 0 0 96 80;" xml:space="preserve">
<g>
	<rect style="fill:none;" width="96" height="80"/>
	<g>
		<path style="fill:#39BFC9;" d="M8.685,74.564c-0.552,0-1-0.448-1-1V7.004c0-0.552,0.448-1,1-1s1,0.448,1,1v66.56
			C9.685,74.116,9.237,74.564,8.685,74.564z"/>
		<path style="fill:#39BFC9;" d="M71.562,70.984H5.003c-0.552,0-1-0.448-1-1s0.448-1,1-1h66.56c0.552,0,1,0.448,1,1
			S72.114,70.984,71.562,70.984z"/>
		<g>
			<path style="fill:none;" d="M67.914,9.439c-2.083,0-3.778,1.695-3.778,3.778c0,1.405,0.78,2.62,1.922,3.27
				c0.551,0.314,1.178,0.508,1.856,0.508c0.028,0,0.053-0.008,0.081-0.008c2.045-0.044,3.697-1.714,3.697-3.77
				C71.691,11.134,69.997,9.439,67.914,9.439z"/>
			<path style="fill:#39BFC9;" d="M31.255,52.266l-5.484-7.718c-0.458,0.487-0.998,0.895-1.6,1.2l5.542,7.799
				C30.146,53.036,30.669,52.602,31.255,52.266z"/>
			<path style="fill:#39BFC9;" d="M57.029,35.996l-7.432-8.67c-0.377,0.56-0.852,1.047-1.396,1.445l7.457,8.699
				C56.026,36.901,56.491,36.404,57.029,35.996z"/>
			<path style="fill:#39BFC9;" d="M8.48,69.119c-0.213,0.51,0.028,1.095,0.538,1.308c0.126,0.053,0.256,0.078,0.385,0.078
				c0.392,0,0.763-0.231,0.923-0.615l9.884-23.681c-0.663-0.16-1.282-0.431-1.834-0.798L8.48,69.119z"/>
			<path style="fill:#39BFC9;" d="M35.365,51.641c0.671,0.149,1.298,0.415,1.859,0.775l6.385-22.651
				c-0.673-0.141-1.3-0.404-1.864-0.758L35.365,51.641z"/>
			<path style="fill:#39BFC9;" d="M61.01,34.845c0.686,0.059,1.335,0.241,1.932,0.519l4.507-16.393
				c-0.686-0.055-1.337-0.231-1.936-0.505L61.01,34.845z"/>
			<path style="fill:#39BFC9;" d="M21.566,34.82c-3.186,0-5.778,2.592-5.778,5.778c0,2.007,1.03,3.777,2.588,4.813
				c0.552,0.367,1.172,0.637,1.834,0.798c0.436,0.106,0.889,0.168,1.357,0.168c0.938,0,1.821-0.229,2.605-0.627
				c0.602-0.306,1.142-0.713,1.6-1.2c0.972-1.034,1.573-2.422,1.573-3.95C27.343,37.412,24.752,34.82,21.566,34.82z M22.993,44.092
				c-0.441,0.181-0.922,0.284-1.427,0.284c-0.194,0-0.381-0.029-0.568-0.057c-0.689-0.105-1.31-0.396-1.824-0.821
				c-0.839-0.694-1.386-1.729-1.386-2.9c0-2.083,1.695-3.778,3.778-3.778c2.083,0,3.778,1.695,3.778,3.778
				c0,0.852-0.294,1.63-0.772,2.263C24.165,43.4,23.626,43.832,22.993,44.092z"/>
			<path style="fill:#39BFC9;" d="M37.224,52.416c-0.562-0.36-1.188-0.627-1.859-0.775c-0.403-0.089-0.82-0.14-1.249-0.14
				c-1.041,0-2.017,0.281-2.862,0.765c-0.586,0.336-1.108,0.77-1.543,1.281c-0.855,1.008-1.374,2.309-1.374,3.731
				c0,3.186,2.592,5.778,5.778,5.778s5.778-2.592,5.778-5.778C39.894,55.237,38.827,53.444,37.224,52.416z M34.116,61.057
				c-2.083,0-3.778-1.695-3.778-3.778c0-0.742,0.223-1.43,0.594-2.015c0.366-0.576,0.884-1.038,1.496-1.347
				c0.51-0.258,1.079-0.416,1.688-0.416c0.241,0,0.476,0.028,0.704,0.071c0.695,0.132,1.315,0.459,1.82,0.916
				c0.764,0.692,1.254,1.681,1.254,2.791C37.894,59.362,36.199,61.057,34.116,61.057z"/>
			<path style="fill:#39BFC9;" d="M44.799,18.333c-3.186,0-5.778,2.592-5.778,5.778c0,2.064,1.091,3.873,2.724,4.896
				c0.565,0.354,1.192,0.616,1.864,0.758c0.384,0.081,0.782,0.125,1.19,0.125c1.273,0,2.447-0.419,3.402-1.118
				c0.544-0.398,1.019-0.885,1.396-1.445c0.618-0.92,0.98-2.026,0.98-3.215C50.577,20.925,47.985,18.333,44.799,18.333z
				 M46.897,27.25c-0.601,0.403-1.322,0.64-2.099,0.64c-0.22,0-0.433-0.029-0.643-0.065c-0.696-0.12-1.32-0.434-1.83-0.88
				c-0.793-0.693-1.305-1.7-1.305-2.833c0-2.083,1.695-3.778,3.778-3.778c2.083,0,3.778,1.695,3.778,3.778
				c0,0.573-0.138,1.11-0.367,1.597C47.916,26.332,47.466,26.868,46.897,27.25z"/>
			<path style="fill:#39BFC9;" d="M62.942,35.364c-0.597-0.279-1.246-0.46-1.932-0.519c-0.166-0.014-0.332-0.025-0.501-0.025
				c-1.307,0-2.51,0.441-3.48,1.176c-0.538,0.408-1.003,0.905-1.371,1.474c-0.584,0.903-0.927,1.975-0.927,3.128
				c0,3.186,2.592,5.778,5.778,5.778s5.778-2.592,5.778-5.778C66.287,38.281,64.914,36.285,62.942,35.364z M60.509,44.376
				c-2.083,0-3.778-1.695-3.778-3.778c0-0.536,0.115-1.044,0.318-1.506c0.278-0.635,0.726-1.177,1.286-1.573
				c0.605-0.429,1.338-0.685,2.132-0.694c0.015,0,0.028-0.004,0.043-0.004c0.691,0,1.331,0.2,1.888,0.525
				c1.124,0.655,1.89,1.86,1.89,3.253C64.287,42.681,62.592,44.376,60.509,44.376z"/>
			<path style="fill:#39BFC9;" d="M67.914,7.439c-3.186,0-5.778,2.592-5.778,5.778c0,2.329,1.388,4.336,3.378,5.249
				c0.598,0.275,1.249,0.45,1.936,0.505c0.154,0.012,0.308,0.024,0.465,0.024c3.186,0,5.778-2.592,5.778-5.778
				S71.1,7.439,67.914,7.439z M67.995,16.986c-0.028,0.001-0.053,0.008-0.081,0.008c-0.678,0-1.306-0.194-1.856-0.508
				c-1.142-0.651-1.922-1.865-1.922-3.27c0-2.083,1.695-3.778,3.778-3.778c2.083,0,3.778,1.695,3.778,3.778
				C71.691,15.272,70.039,16.942,67.995,16.986z"/>
		</g>
	</g>
</g>
</svg>
