<?xml version="1.0" encoding="iso-8859-1"?>
<!-- Generator: Adobe Illustrator 20.1.0, SVG Export Plug-In . SVG Version: 6.00 Build 0)  -->
<svg version="1.1" id="Layer_1" xmlns="http://www.w3.org/2000/svg" xmlns:xlink="http://www.w3.org/1999/xlink" x="0px" y="0px"
	 viewBox="0 0 96 80" style="enable-background:new 0 0 96 80;" xml:space="preserve">
<g>
	<g id="SX6gSJ.tif_6_">
		<g>
			<path style="fill:#39BFC9;" d="M50.54,26.312c-0.033-0.525-0.077-0.903-0.078-1.281c-0.006-3.016-0.022-4.03,0.011-7.046
				c0.008-0.737-0.168-1.042-0.975-1.036c-3.701,0.03-7.402,0.001-11.104-0.002c-2.915-0.003-5.83,0.005-8.744,0.001
				c-3.505-0.004-7.01,0.002-10.515-0.036c-0.986-0.011-1.184,0.454-1.183,1.331c0.021,12.587,0.018,23.173,0.019,35.761
				c0,3.278,0.017,6.556-0.02,9.834c-0.009,0.824,0.187,1.133,1.092,1.13c9.244-0.035,18.489-0.091,27.731,0.04
				c1.699,0.024,3.393,0.842,5.07,1.355c0.192,0.059,0.364,0.519,0.369,0.797c0.031,1.671,0.069,3.346-0.006,5.014
				c-0.134,2.967-2.332,5.059-5.314,5.065c-8.424,0.017-16.849,0.01-25.274,0c-3.244-0.004-5.433-2.266-5.432-5.557
				c0.003-7.67-0.003-15.34-0.002-23.011c0.002-12.784,0.004-23.567,0.012-36.351c0.002-2.707,1.437-4.707,3.866-5.392
				c0.403-0.114,0.837-0.164,1.257-0.165c8.556-0.009,17.111-0.013,25.667-0.004c2.881,0.003,5.178,2.167,5.214,5.052
				c0.063,5.047,0.002,8.095,0.037,13.143C52.249,26.101,51.395,25.995,50.54,26.312z M34.296,66.63c0-0.002,0-0.005,0-0.007
				c-5.078,0-10.157,0.02-15.235-0.019c-0.878-0.007-1.144,0.275-1.11,1.124c0.056,1.407,0,2.817,0.021,4.226
				c0.032,2.159,1.397,3.597,3.571,3.605c8.453,0.03,16.906,0.027,25.36,0.002c2.083-0.006,3.503-1.468,3.548-3.54
				c0.031-1.441-0.037-2.885,0.026-4.324c0.039-0.89-0.298-1.092-1.141-1.085C44.323,66.649,39.309,66.63,34.296,66.63z
				 M34.275,15.227c0-0.002,0-0.005,0-0.007c4.42,0,8.841,0.006,13.261-0.005c0.909-0.002,2.195,0.279,2.627-0.193
				c0.492-0.538,0.271-1.773,0.273-2.705c0.006-2.585-1.338-3.884-3.96-3.886c-2.849-0.003-5.697-0.005-8.546-0.005
				c-5.403-0.001-10.806-0.01-16.208,0.003c-2.338,0.006-3.727,1.405-3.753,3.723c-0.007,0.622,0.052,1.25-0.013,1.865
				c-0.097,0.931,0.222,1.241,1.191,1.232C24.19,15.203,29.232,15.227,34.275,15.227z"/>
			<path style="fill:#39BFC9;" d="M42.839,48.786c-0.465-0.576-0.935-1.147-1.393-1.729c-4.665-5.922-9.341-11.835-13.984-17.775
				c-1.957-2.503-1.101-5.396,1.781-6.111c1.535-0.381,2.764,0.258,3.747,1.4c2.609,3.03,5.2,6.076,7.8,9.115
				c0.402,0.469,0.813,0.93,1.293,1.478c0.11-0.275,0.195-0.437,0.24-0.609c0.381-1.47,1.265-2.536,2.686-3.041
				c3.609-1.284,7.221-2.568,10.87-3.733c1.968-0.628,3.768-0.111,5.183,1.453c1.913,2.115,3.831,4.225,5.698,6.38
				c3.339,3.855,5.184,8.451,6.511,13.3c0.241,0.881,0.554,1.747,0.901,2.592c0.24,0.583,0.464,1.252,1.406,0.932
				c0.207-0.071,0.648,0.275,0.86,0.529c2.349,2.821,4.669,5.666,7.01,8.493c0.522,0.63,0.5,1.144-0.145,1.674
				c-5.093,4.18-10.179,8.368-15.262,12.561c-0.604,0.498-1.107,0.449-1.6-0.151c-2.35-2.863-4.712-5.716-7.05-8.589
				c-0.189-0.233-0.399-0.66-0.308-0.872c0.344-0.806-0.18-1.155-0.718-1.329c-1.079-0.349-2.192-0.628-3.31-0.819
				c-4.726-0.808-8.914-2.783-12.684-5.708c-2.719-2.109-5.489-4.154-8.154-6.329c-0.914-0.746-1.688-1.729-2.325-2.731
				c-0.629-0.989-0.644-2.118,0.141-3.13c0.818-1.055,1.907-1.513,3.201-1.267c0.658,0.125,1.318,0.408,1.897,0.754
				c1.855,1.106,3.674,2.275,5.506,3.42C42.705,48.891,42.772,48.839,42.839,48.786z M60.732,64.363
				c4.152-3.42,8.219-6.776,12.298-10.119c0.447-0.366,0.294-0.663,0.105-1.096c-0.549-1.253-1.142-2.506-1.506-3.818
				c-1.44-5.182-3.545-9.99-7.308-13.953c-1.421-1.497-2.798-3.038-4.143-4.604c-1.242-1.445-2.681-1.835-4.484-1.189
				c-3.113,1.117-6.256,2.15-9.373,3.253c-2.406,0.852-3.115,2.844-1.842,5.094c0.288,0.509,0.614,1.026,0.028,1.48
				c-0.653,0.506-1.08-0.015-1.472-0.474c-2.769-3.237-5.532-6.48-8.304-9.714c-1.109-1.294-2.199-2.606-3.366-3.845
				c-0.77-0.817-1.719-0.81-2.561-0.142c-0.792,0.629-0.926,1.472-0.352,2.45c0.214,0.365,0.486,0.699,0.748,1.034
				c2.368,3.015,4.744,6.024,7.111,9.041c2.771,3.532,5.55,7.057,8.292,10.611c0.727,0.943,0.689,1.657,0.078,2.305
				c-0.607,0.644-1.354,0.698-2.313,0.108c-1.981-1.219-3.94-2.474-5.927-3.683c-0.466-0.283-1.003-0.597-1.517-0.613
				c-0.487-0.015-1.143,0.214-1.432,0.572c-0.245,0.303-0.266,1.072-0.044,1.409c0.53,0.804,1.178,1.579,1.928,2.179
				c2.481,1.985,5.06,3.847,7.541,5.832c3.816,3.053,8.064,5.14,12.919,5.822C57.635,62.559,59.294,62.992,60.732,64.363z
				 M81.79,62.144c-1.952-2.373-3.83-4.598-5.633-6.883c-0.559-0.708-0.917-0.66-1.558-0.125
				c-4.278,3.567-8.585,7.099-12.887,10.638c-0.198,0.163-0.429,0.285-0.711,0.469c2.213,2.686,4.284,5.199,6.399,7.765
				C72.224,70.03,76.945,66.138,81.79,62.144z"/>
			<path style="fill:#39BFC9;" d="M37.704,71.019c-0.011,2.013-1.535,3.505-3.565,3.491c-1.938-0.014-3.435-1.562-3.419-3.536
				c0.016-1.944,1.564-3.468,3.514-3.457C36.17,67.527,37.714,69.086,37.704,71.019z M34.191,69.212
				c-0.907,0.001-1.771,0.849-1.792,1.758c-0.023,0.977,0.808,1.839,1.783,1.852c0.969,0.013,1.835-0.833,1.842-1.798
				C36.031,70.06,35.172,69.211,34.191,69.212z"/>
			<path style="fill:#39BFC9;" d="M34.123,12.651c-0.915,0-1.841,0.079-2.741-0.038c-0.372-0.049-0.984-0.163-0.983-0.806
				c0-0.643,0.428-0.886,1.015-0.889c1.864-0.01,3.727-0.01,5.591,0c0.581,0.003,1.07,0.209,1.062,0.883
				c-0.008,0.69-0.544,0.836-1.1,0.849c-0.948,0.022-1.896,0.006-2.844,0.006C34.123,12.654,34.123,12.652,34.123,12.651z"/>
			<path style="fill:#39BFC9;" d="M28.417,11.882c-0.116,0.655-0.504,1.112-1.285,1.109c-0.711-0.002-1.203-0.56-1.147-1.285
				c0.057-0.735,0.505-1.113,1.206-1.154C27.846,10.513,28.434,11.147,28.417,11.882z"/>
		</g>
	</g>
	<rect style="fill:none;" width="96" height="80"/>
</g>
</svg>
