<?xml version="1.0" encoding="iso-8859-1"?>
<!-- Generator: Adobe Illustrator 20.1.0, SVG Export Plug-In . SVG Version: 6.00 Build 0)  -->
<svg version="1.1" id="Layer_1" xmlns="http://www.w3.org/2000/svg" xmlns:xlink="http://www.w3.org/1999/xlink" x="0px" y="0px"
	 viewBox="0 0 80 80" style="enable-background:new 0 0 80 80;" xml:space="preserve">
<g>
	<g>
		<g>
			<path style="fill:#39BFC9;" d="M64.499,61.002H15.502c-0.63,0-1.141,0.511-1.141,1.141c0,0.631,0.511,1.141,1.141,1.141h48.997
				c0.631,0,1.141-0.511,1.141-1.141C65.64,61.513,65.129,61.002,64.499,61.002z"/>
			<path style="fill:#39BFC9;" d="M43.081,23.725c0.684-0.745,1.105-1.735,1.105-2.824c0-2.308-1.878-4.186-4.186-4.186
				c-2.308,0-4.186,1.878-4.186,4.186c0,1.089,0.421,2.079,1.104,2.824c-13.044,1.531-23.2,12.645-23.2,26.094
				c0,0.353,0.013,0.703,0.027,1.051c0.024,0.613,0.527,1.097,1.14,1.097h23.973v3.353c0,0.117,0.023,0.228,0.056,0.335H15.502
				c-0.63,0-1.141,0.511-1.141,1.141c0,0.63,0.511,1.141,1.141,1.141h48.997c0.631,0,1.141-0.511,1.141-1.141
				c0-0.631-0.511-1.141-1.141-1.141H41.085c0.033-0.107,0.056-0.218,0.056-0.335v-3.353h23.973c0.613,0,1.116-0.484,1.14-1.097
				c0.014-0.348,0.027-0.698,0.027-1.051C66.281,36.37,56.125,25.256,43.081,23.725z M40,18.998c1.05,0,1.904,0.853,1.904,1.903
				S41.049,22.804,40,22.804c-1.05,0-1.903-0.853-1.903-1.903C38.097,19.852,38.95,18.998,40,18.998z M16.001,49.684
				C16.074,36.513,26.812,25.821,40,25.821c13.188,0,23.926,10.692,23.999,23.863H16.001z"/>
			<path style="fill:#39BFC9;" d="M37.232,30.335c-13.961,3.057-15.847,15.196-15.865,15.319c-0.089,0.624,0.345,1.202,0.969,1.29
				c0.055,0.009,0.109,0.011,0.162,0.011c0.559,0,1.047-0.41,1.129-0.98c0.015-0.107,1.664-10.689,14.095-13.411
				c0.615-0.135,1.005-0.744,0.87-1.359C38.457,30.591,37.853,30.2,37.232,30.335z"/>
		</g>
	</g>
	<rect style="fill:none;" width="80" height="80"/>
</g>
</svg>
