<?xml version="1.0" encoding="iso-8859-1"?>
<!-- Generator: Adobe Illustrator 20.1.0, SVG Export Plug-In . SVG Version: 6.00 Build 0)  -->
<svg version="1.1" id="Layer_1" xmlns="http://www.w3.org/2000/svg" xmlns:xlink="http://www.w3.org/1999/xlink" x="0px" y="0px"
	 viewBox="0 0 96 80" style="enable-background:new 0 0 96 80;" xml:space="preserve">
<g>
	<rect style="fill:none;" width="96" height="80"/>
	<g id="Layer_x0020_1_2_">
		<path style="fill:#27AFB7;" d="M52.384,21.292l-0.002-0.001h-0.013l-0.015-0.001h-0.001l-0.017-0.001l-0.009-0.001H52.32
			l-0.066-0.001h-8.509l-0.066,0.001h-0.006l-0.01,0.001l-0.017,0.001l-0.016,0.001h-0.012l-0.004,0.001
			c-0.302,0.031-0.575,0.167-0.778,0.367l-0.006,0.006c-0.229,0.234-0.373,0.556-0.373,0.909c0,0.354,0.144,0.676,0.373,0.909
			l0.006,0.006c0.204,0.201,0.476,0.337,0.778,0.367l0.004,0.001h0.012l0.016,0.001l0.017,0.001l0.01,0.001h0.006l0.066,0.001h8.509
			l0.066-0.001h0.007l0.009-0.001l0.017-0.001h0.001l0.015-0.001h0.013l0.002-0.001c0.302-0.031,0.574-0.165,0.778-0.367
			l0.006-0.006c0.229-0.234,0.373-0.556,0.373-0.909c0-0.354-0.144-0.676-0.373-0.909l-0.006-0.006
			C52.958,21.459,52.686,21.323,52.384,21.292z M46.881,33.402c0-0.617,0.501-1.118,1.118-1.118c0.617,0,1.118,0.501,1.118,1.118
			v3.165c1.027,0.055,2.05,0.226,3.025,0.518c3.202,0.961,5.893,3.222,6.651,7.012c0.12,0.604-0.273,1.193-0.877,1.313
			c-0.604,0.12-1.193-0.273-1.313-0.877c-0.571-2.855-2.635-4.571-5.096-5.309c-0.767-0.229-1.572-0.368-2.388-0.42v10.693
			c1.128,0.007,2.289,0.091,3.57,0.481c1.41,0.428,2.83,1.201,3.832,2.55c0.805,1.086,1.325,2.516,1.325,4.394
			c0,2.935-1.816,5.138-4.392,6.439c-1.297,0.655-2.793,1.082-4.334,1.247v3.261c0,0.617-0.501,1.118-1.118,1.118
			c-0.617,0-1.118-0.501-1.118-1.118v-3.201c-1.027-0.055-2.05-0.225-3.025-0.516c-3.201-0.961-5.892-3.224-6.651-7.012
			c-0.12-0.604,0.273-1.193,0.877-1.313c0.604-0.12,1.193,0.273,1.313,0.877c0.573,2.855,2.635,4.571,5.096,5.309
			c0.767,0.228,1.572,0.368,2.388,0.42v-10.69c-1.128-0.008-2.289-0.092-3.57-0.483c-2.577-0.786-5.157-2.649-5.157-6.944
			c0-2.936,1.816-5.138,4.393-6.439c1.296-0.655,2.792-1.084,4.333-1.248v-3.225L46.881,33.402z M49.116,51.721v10.637
			c1.197-0.153,2.342-0.49,3.331-0.99c1.852-0.937,3.16-2.467,3.16-4.45c0-1.353-0.345-2.346-0.878-3.066
			c-0.672-0.905-1.677-1.44-2.689-1.747c-0.996-0.303-1.964-0.376-2.923-0.384H49.116z M46.881,49.514V38.876
			c-1.195,0.153-2.341,0.49-3.33,0.99c-1.854,0.937-3.161,2.465-3.161,4.45c0,2.979,1.786,4.27,3.568,4.814
			c0.997,0.303,1.964,0.376,2.923,0.385V49.514z M51.389,19.05c0.026-0.074,0.06-0.144,0.1-0.21l4.678-9.353
			c-1.847,0.594-4.183,1.215-5.436-0.981c-1.155-2.022-2.727-2.023-2.732-2.023c-0.004,0-1.577,0.001-2.732,2.023
			c-1.253,2.196-3.591,1.575-5.436,0.981l4.723,9.444l0.052,0.119h6.784H51.389z M42.285,19.369L37.056,8.916
			c-0.106-0.172-0.167-0.373-0.167-0.589c0-1.077,0.565-1.48,1.53-1.48c0.508,0,1.106,0.197,1.796,0.42
			c1.15,0.375,2.695,0.877,3.116,0.14C45.133,4.251,47.991,4.25,48,4.25c0.008,0,2.866,0.001,4.669,3.157
			c0.421,0.738,1.964,0.235,3.116-0.14c0.689-0.224,1.289-0.42,1.796-0.42c0.965,0,1.53,0.403,1.53,1.48h-0.006
			c0,0.167-0.037,0.338-0.118,0.498l-5.273,10.545c0.383,0.176,0.73,0.42,1.025,0.714l0.006,0.006l0.029,0.03l0.006,0.006
			c0.617,0.636,0.999,1.499,0.999,2.449c0,0.965-0.398,1.847-1.033,2.485l-0.006,0.006l-0.03,0.029l-0.006,0.006
			c-0.076,0.074-0.158,0.145-0.24,0.212c6.014,3.976,28.123,20.411,16.709,40.554c-2.216,3.91-5.583,6.464-9.658,7.994
			c-3.975,1.495-8.621,2.006-13.513,1.869c-4.893,0.137-9.539-0.373-13.513-1.869c-4.075-1.53-7.442-4.084-9.658-7.994
			C13.415,45.722,35.521,29.287,41.535,25.311c-0.097-0.078-0.189-0.159-0.276-0.247l-0.006-0.006l-0.029-0.03l-0.006-0.006
			c-0.617-0.636-0.999-1.502-0.999-2.449c0-0.967,0.398-1.847,1.033-2.485l0.006-0.006l0.03-0.029l0.006-0.006
			C41.582,19.769,41.918,19.538,42.285,19.369z M51.612,26.096h-7.224c-0.092,0.103-0.202,0.188-0.326,0.249
			c-1.464,0.874-29.033,17.705-17.297,38.418c1.935,3.417,4.905,5.656,8.507,7.01c3.693,1.388,8.066,1.861,12.697,1.727h0.061
			c4.632,0.134,9.004-0.339,12.697-1.727c3.602-1.352,6.572-3.593,8.507-7.01C81.27,43.521,51.955,26.357,51.872,26.308
			C51.773,26.249,51.685,26.177,51.612,26.096z"/>
	</g>
</g>
</svg>
