<?xml version="1.0" encoding="iso-8859-1"?>
<!-- Generator: Adobe Illustrator 20.1.0, SVG Export Plug-In . SVG Version: 6.00 Build 0)  -->
<svg version="1.1" id="Layer_1" xmlns="http://www.w3.org/2000/svg" xmlns:xlink="http://www.w3.org/1999/xlink" x="0px" y="0px"
	 viewBox="0 0 80 80" style="enable-background:new 0 0 80 80;" xml:space="preserve">
<g>
	<rect style="fill:none;" width="80" height="80"/>
	<g>
		<path style="fill:#39BFC9;stroke:#39BFC9;stroke-width:0.25;stroke-miterlimit:10;" d="M15.562,67.833
			c-0.448,0-0.812-0.364-0.812-0.812V12.979c0-0.448,0.364-0.812,0.812-0.812c0.448,0,0.812,0.364,0.812,0.812v54.043
			C16.374,67.47,16.011,67.833,15.562,67.833z"/>
		<path style="fill:#39BFC9;stroke:#39BFC9;stroke-width:0.25;stroke-miterlimit:10;" d="M67.428,64.927H12.572
			c-0.448,0-0.812-0.364-0.812-0.812c0-0.448,0.364-0.812,0.812-0.812h54.855c0.448,0,0.812,0.364,0.812,0.812
			C68.24,64.563,67.876,64.927,67.428,64.927z"/>
		<path style="fill:#39BFC9;stroke:#39BFC9;stroke-width:0.25;stroke-miterlimit:10;" d="M15.563,47.866
			c-0.226,0-0.451-0.094-0.611-0.277c-0.295-0.337-0.261-0.85,0.076-1.146l18.525-16.216c0.288-0.252,0.712-0.268,1.019-0.041
			l12.732,9.452l13.526-19.015c0.26-0.366,0.767-0.451,1.132-0.191s0.451,0.767,0.191,1.132l-14.006,19.69
			c-0.126,0.178-0.319,0.297-0.535,0.331c-0.216,0.034-0.437-0.02-0.611-0.15L34.129,31.88L16.097,47.665
			C15.943,47.8,15.753,47.866,15.563,47.866z"/>
		<path style="fill:#39BFC9;stroke:#39BFC9;stroke-width:0.25;stroke-miterlimit:10;" d="M65.211,24.345
			c-0.157,0-0.313-0.046-0.448-0.135l-7.818-5.182c-0.249-0.165-0.388-0.454-0.36-0.752c0.028-0.298,0.217-0.556,0.492-0.673
			l8.195-3.466c0.258-0.109,0.551-0.078,0.779,0.081c0.229,0.159,0.36,0.424,0.348,0.702l-0.377,8.648
			c-0.013,0.293-0.182,0.555-0.443,0.688C65.463,24.316,65.337,24.345,65.211,24.345z M59.102,18.51l5.361,3.553l0.258-5.929
			L59.102,18.51z"/>
		<path style="fill:#39BFC9;stroke:#39BFC9;stroke-width:0.25;stroke-miterlimit:10;" d="M26.07,64.927h-5.106
			c-0.448,0-0.812-0.364-0.812-0.812V45.981c0-0.448,0.364-0.812,0.812-0.812h5.106c0.448,0,0.812,0.364,0.812,0.812v18.135
			C26.882,64.564,26.519,64.927,26.07,64.927z M21.776,63.303h3.482V46.793h-3.482V63.303z"/>
		<path style="fill:#39BFC9;stroke:#39BFC9;stroke-width:0.25;stroke-miterlimit:10;" d="M38.389,64.927h-5.106
			c-0.448,0-0.812-0.364-0.812-0.812V38.968c0-0.448,0.364-0.812,0.812-0.812h5.106c0.448,0,0.812,0.364,0.812,0.812v25.147
			C39.201,64.564,38.838,64.927,38.389,64.927z M34.095,63.303h3.482V39.78h-3.482V63.303z"/>
		<path style="fill:#39BFC9;stroke:#39BFC9;stroke-width:0.25;stroke-miterlimit:10;" d="M50.709,64.927h-5.106
			c-0.448,0-0.812-0.364-0.812-0.812V45.183c0-0.448,0.364-0.812,0.812-0.812h5.106c0.448,0,0.812,0.364,0.812,0.812v18.932
			C51.521,64.564,51.157,64.927,50.709,64.927z M46.414,63.303h3.482V45.995h-3.482V63.303z"/>
		<path style="fill:#39BFC9;stroke:#39BFC9;stroke-width:0.25;stroke-miterlimit:10;" d="M63.028,64.927h-5.106
			c-0.448,0-0.812-0.364-0.812-0.812V32.194c0-0.448,0.364-0.812,0.812-0.812h5.106c0.448,0,0.812,0.364,0.812,0.812v31.921
			C63.84,64.564,63.477,64.927,63.028,64.927z M58.734,63.303h3.482V33.006h-3.482V63.303z"/>
	</g>
</g>
</svg>
