<?xml version="1.0" encoding="iso-8859-1"?>
<!-- Generator: Adobe Illustrator 20.1.0, SVG Export Plug-In . SVG Version: 6.00 Build 0)  -->
<svg version="1.1" id="Layer_1" xmlns="http://www.w3.org/2000/svg" xmlns:xlink="http://www.w3.org/1999/xlink" x="0px" y="0px"
	 viewBox="0 0 96 96" style="enable-background:new 0 0 96 96;" xml:space="preserve">
<g id="Icn_x5F_lock">
	<rect style="fill:none;" width="96" height="96"/>
	<path style="fill:#E4E4E4;" d="M60.602,65.912H35.398c-1.49,0-2.702-1.076-2.702-2.4V44.949c0-1.324,1.212-2.4,2.702-2.4h20.771
		v-3.523c-0.001-0.3-0.125-7.381-8.169-7.381c-3.191,0-5.505,1.094-6.879,3.25c-0.24,0.375-0.787,0.513-1.223,0.306
		c-0.436-0.208-0.595-0.682-0.354-1.059c1.178-1.85,3.602-4.055,8.455-4.055c9.856,0,9.97,8.849,9.97,8.937v3.523h2.633
		c1.49,0,2.702,1.076,2.702,2.4v18.564C63.305,64.836,62.092,65.912,60.602,65.912z M35.398,44.106
		c-0.497,0-0.901,0.379-0.901,0.843v18.564c0,0.464,0.404,0.843,0.901,0.843h25.205c0.497,0,0.901-0.379,0.901-0.843V44.949
		c0-0.464-0.404-0.843-0.901-0.843H35.398z M48.003,61.016c-1.977,0-2.7-1.44-2.704-2.408v-2.48
		c-1.122-0.758-1.801-1.959-1.801-3.234c0-2.229,2.02-4.042,4.502-4.042c2.482,0,4.502,1.813,4.502,4.042
		c0,1.275-0.679,2.475-1.8,3.234v2.477C50.701,59.575,49.982,61.016,48.003,61.016z M48,50.41c-1.489,0-2.701,1.115-2.701,2.485
		c0,0.89,0.524,1.719,1.367,2.161l0.434,0.227v3.323c0.009,0.313,0.138,0.853,0.903,0.853c0.762,0,0.89-0.54,0.897-0.861v-3.315
		l0.434-0.227c0.843-0.442,1.367-1.271,1.367-2.161C50.7,51.525,49.489,50.41,48,50.41z"/>
</g>
</svg>
