<?xml version="1.0" encoding="iso-8859-1"?>
<!-- Generator: Adobe Illustrator 20.1.0, SVG Export Plug-In . SVG Version: 6.00 Build 0)  -->
<svg version="1.1" id="Layer_1" xmlns="http://www.w3.org/2000/svg" xmlns:xlink="http://www.w3.org/1999/xlink" x="0px" y="0px"
	 viewBox="0 0 64 64" style="enable-background:new 0 0 64 64;" xml:space="preserve">
<rect style="fill:none;" width="64" height="63.959"/>
<path style="fill:#F5F6F8;stroke:#F5F6F8;stroke-width:0.6037;stroke-miterlimit:10;" d="M26.194,16.705L11.952,31.243
	c-0.397,0.406-0.397,1.063,0,1.469L26.194,47.25c0.397,0.406,1.041,0.406,1.439,0c0.397-0.406,0.397-1.094,0-1.5L15.127,32.953
	h36.202c0.562,0,1.017-0.4,1.017-0.974s-0.455-0.974-1.017-0.974H15.127l12.506-12.799c0.199-0.203,0.298-0.486,0.298-0.751
	c0-0.265-0.099-0.54-0.298-0.743C27.235,16.308,26.592,16.299,26.194,16.705z"/>
</svg>
