<?xml version="1.0" encoding="iso-8859-1"?>
<!-- Generator: Adobe Illustrator 20.1.0, SVG Export Plug-In . SVG Version: 6.00 Build 0)  -->
<svg version="1.1" id="Layer_1" xmlns="http://www.w3.org/2000/svg" xmlns:xlink="http://www.w3.org/1999/xlink" x="0px" y="0px"
	 viewBox="0 0 32 32" style="enable-background:new 0 0 32 32;" xml:space="preserve">
<g>
	<rect y="0" style="fill:none;" width="32" height="32"/>
	<g>
		<path style="fill:#E4E4E4;stroke:#E4E4E4;stroke-width:0.25;stroke-miterlimit:10;" d="M16.372,0.113
			c-4.814-0.004-8.721,3.896-8.725,8.71c-0.004,4.814,3.896,8.721,8.71,8.725s8.721-3.896,8.725-8.71
			C25.086,4.024,21.186,0.117,16.372,0.113z M16.357,16.822c-4.406-0.004-7.988-3.592-7.985-7.998
			c0.004-4.406,3.592-7.988,7.998-7.985c4.406,0.004,7.988,3.592,7.985,7.998C24.352,13.244,20.764,16.826,16.357,16.822z"/>
		<polygon style="fill:#E4E4E4;stroke:#E4E4E4;stroke-width:0.25;stroke-miterlimit:10;" points="16.364,9.557 12.005,9.553 
			12.004,10.28 17.089,10.284 17.096,3.049 16.369,3.049 		"/>
	</g>
</g>
</svg>
