<?xml version="1.0" encoding="iso-8859-1"?>
<!-- Generator: Adobe Illustrator 20.1.0, SVG Export Plug-In . SVG Version: 6.00 Build 0)  -->
<svg version="1.1" id="Layer_1" xmlns="http://www.w3.org/2000/svg" xmlns:xlink="http://www.w3.org/1999/xlink" x="0px" y="0px"
	 viewBox="0 0 96 80" style="enable-background:new 0 0 96 80;" xml:space="preserve">
<g>
	<rect style="fill:none;" width="96" height="80"/>
	<g id="search">
		<g>
			<path style="fill:#39BFC9;stroke:#39BFC9;stroke-width:0.7;stroke-miterlimit:10;" d="M80.43,64.964l-17.42-17.42
				c-0.725-0.725-1.608-1.089-2.489-1.089c-0.315,0-0.626,0.063-0.933,0.156l-2.463-2.463c2.903-3.926,4.64-8.765,4.64-14.025
				c0-13.059-10.583-23.642-23.642-23.642S14.482,17.064,14.482,30.123s10.583,23.642,23.642,23.642
				c5.258,0,10.099-1.737,14.025-4.64l2.463,2.463c-0.351,1.168-0.051,2.438,0.933,3.422l17.42,17.42
				c0.725,0.725,1.608,1.089,2.489,1.089s1.763-0.363,2.489-1.089l2.489-2.489C81.881,68.49,81.881,66.415,80.43,64.964z
				 M38.124,52.521c-12.35,0-22.398-10.048-22.398-22.398S25.774,7.726,38.124,7.726s22.398,10.048,22.398,22.398
				S50.473,52.521,38.124,52.521z M55.212,50.429l-2.057-2.057c1.172-0.967,2.251-2.046,3.218-3.218l2.057,2.057
				c-0.134,0.105-0.27,0.205-0.397,0.332l-2.489,2.489C55.417,50.159,55.316,50.295,55.212,50.429z M79.551,69.062l-2.489,2.489
				c-0.473,0.474-1.03,0.724-1.609,0.724s-1.136-0.25-1.609-0.724l-17.42-17.42c-0.962-0.962-0.962-2.256,0-3.218l2.489-2.489
				c0.473-0.474,1.03-0.724,1.609-0.724c0.579,0,1.136,0.25,1.609,0.724l17.42,17.42C80.512,66.806,80.512,68.1,79.551,69.062z"/>
			<g>
				<path style="fill:#39BFC9;stroke:#39BFC9;stroke-width:0.7;stroke-miterlimit:10;" d="M38.124,11.747
					c-10.132,0-18.376,8.244-18.376,18.376S27.991,48.5,38.124,48.5S56.5,40.256,56.5,30.123S48.256,11.747,38.124,11.747z
					 M38.124,47.351c-9.514,0-17.228-7.714-17.228-17.228s7.714-17.228,17.228-17.228s17.228,7.714,17.228,17.228
					S47.638,47.351,38.124,47.351z"/>
			</g>
		</g>
	</g>
</g>
</svg>
