<?xml version="1.0" encoding="iso-8859-1"?>
<!-- Generator: Adobe Illustrator 20.1.0, SVG Export Plug-In . SVG Version: 6.00 Build 0)  -->
<svg version="1.1" id="Layer_1" xmlns="http://www.w3.org/2000/svg" xmlns:xlink="http://www.w3.org/1999/xlink" x="0px" y="0px"
	 viewBox="0 0 64 62.932" style="enable-background:new 0 0 64 62.932;" xml:space="preserve">
<g>
	<path style="fill:#38BFC9;" d="M32,52.837c-10.848,0-19.673-8.825-19.673-19.673S21.152,13.491,32,13.491
		s19.673,8.825,19.673,19.673S42.848,52.837,32,52.837z M32,16.024c-9.451,0-17.14,7.689-17.14,17.14s7.688,17.14,17.14,17.14
		s17.14-7.689,17.14-17.14S41.451,16.024,32,16.024z"/>
	<path style="fill:#38BFC9;" d="M33.791,33.164l8.004-8.004c0.494-0.495,0.494-1.296,0-1.791c-0.494-0.495-1.297-0.495-1.791,0
		L32,31.373l-8.004-8.004c-0.494-0.495-1.297-0.495-1.791,0c-0.494,0.495-0.494,1.296,0,1.791l8.004,8.004l-8.004,8.004
		c-0.494,0.495-0.494,1.296,0,1.791c0.247,0.248,0.571,0.371,0.896,0.371s0.648-0.124,0.896-0.371L32,34.955l8.004,8.004
		c0.247,0.248,0.571,0.371,0.896,0.371s0.648-0.124,0.896-0.371c0.494-0.495,0.494-1.296,0-1.791L33.791,33.164z"/>
	<rect style="fill:none;" width="64" height="62.932"/>
	<rect x="0.262" style="fill:none;" width="63.477" height="62.932"/>
</g>
</svg>
