<?xml version="1.0" encoding="iso-8859-1"?>
<!-- Generator: Adobe Illustrator 20.1.0, SVG Export Plug-In . SVG Version: 6.00 Build 0)  -->
<svg version="1.1" id="Layer_1" xmlns="http://www.w3.org/2000/svg" xmlns:xlink="http://www.w3.org/1999/xlink" x="0px" y="0px"
	 viewBox="0 0 118.3 33.831" style="enable-background:new 0 0 118.3 33.831;" xml:space="preserve">
<path style="fill:#FFFFFF;" d="M8.608,26.679c0,1.975-0.809,4.628-3.204,4.628c-1.198,0-1.909-0.617-1.909-1.845
	C3.495,27.134,6.892,26.679,8.608,26.679 M12.037,33.474V22.507c0-3.56-2.33-4.791-5.598-4.791c-3.203,0-5.856,1.361-5.856,4.887
	h3.495c0-1.521,0.808-2.361,2.361-2.361c1.781,0,2.169,1.294,2.169,2.815v1.521C5.113,24.675,0,25.158,0,29.788
	c0,2.619,2.072,4.044,4.529,4.044c1.684,0,3.237-0.55,4.013-2.135h0.065v1.778H12.037z"/>
<path style="fill:#FFFFFF;" d="M22.688,23.347c0-1.585-0.454-3.106-2.33-3.106c-2.264,0-2.945,2.362-2.945,4.207
	c0,3.884,2.267,6.86,6.342,6.86c0.875,0,1.748-0.097,2.59-0.388v2.2c-1.456,0.452-2.977,0.711-4.499,0.711
	c-5.5,0-8.251-3.366-8.251-8.736c0-4.467,2.426-7.379,7.054-7.379c3.753,0,5.857,1.845,5.857,5.631H22.688z"/>
<path style="fill:#FFFFFF;" d="M36.484,23.347c0-1.585-0.454-3.106-2.33-3.106c-2.266,0-2.944,2.362-2.944,4.207
	c0,3.884,2.266,6.86,6.342,6.86c0.873,0,1.747-0.097,2.587-0.388v2.2c-1.455,0.452-2.977,0.711-4.497,0.711
	c-5.5,0-8.251-3.366-8.251-8.736c0-4.467,2.428-7.379,7.053-7.379c3.753,0,5.857,1.845,5.857,5.631H36.484z"/>
<path style="fill:#FFFFFF;" d="M50.559,22.666h-5.63c0.162-1.551,1.358-2.653,2.912-2.653
	C49.492,20.013,50.559,21.018,50.559,22.666 M53.956,24.836v-0.875c0-3.753-1.94-6.245-5.857-6.245c-4.594,0-6.6,2.881-6.6,7.249
	c0,5.08,2.297,8.865,7.766,8.865c1.456,0,2.913-0.162,4.303-0.614v-2.492c-0.905,0.324-1.973,0.583-2.943,0.583
	c-3.496,0-5.792-3.203-5.792-6.471H53.956z"/>
<path style="fill:#FFFFFF;" d="M64.603,33.474v-8.8c0-0.745,0.063-2.719-0.55-3.302c-0.26-0.258-0.681-0.29-1.035-0.29
	c-2.59,0-3.624,3.658-3.624,5.73v6.663h-3.594V18.072h3.594v2.88h0.064c0.809-1.974,2.362-3.237,4.564-3.237
	c2.943,0,4.171,2.428,4.171,5.082v10.677H64.603z"/>
<path style="fill:#FFFFFF;" d="M75.67,20.565v7.279c0,1.813,0.192,3.463,2.426,3.463c0.55,0,1.097-0.129,1.649-0.259v2.523
	c-0.971,0.162-1.973,0.259-2.943,0.259c-3.14,0-4.726-1.035-4.726-4.237v-9.029h-3.008v-2.492h3.008v-3.658l3.594-1.456v5.114h4.561
	v2.492H75.67z"/>
<path style="fill:#FFFFFF;" d="M90.623,33.474v-2.879h-0.064c-0.809,1.941-2.393,3.236-4.563,3.236c-2.944,0-4.174-2.427-4.174-5.08
	V18.072h3.594v8.801c0,0.745-0.067,2.719,0.547,3.301c0.26,0.259,0.683,0.29,1.038,0.29c2.587,0,3.623-3.653,3.623-5.725v-6.667
	h3.591v15.402H90.623z"/>
<path style="fill:#FFFFFF;" d="M100.072,26.713v6.762h-3.591V18.073h3.591v2.849h0.064c1.198-2.136,2.394-3.205,4.984-3.205v3.755
	C101.432,21.471,100.072,23.087,100.072,26.713"/>
<path style="fill:#FFFFFF;" d="M114.903,22.666h-5.631c0.162-1.551,1.358-2.653,2.912-2.653
	C113.835,20.013,114.903,21.018,114.903,22.666 M118.3,24.836v-0.875c0-3.753-1.941-6.245-5.856-6.245
	c-4.593,0-6.602,2.881-6.602,7.249c0,5.08,2.298,8.865,7.767,8.865c1.455,0,2.914-0.162,4.303-0.614v-2.492
	c-0.906,0.324-1.974,0.583-2.942,0.583c-3.497,0-5.793-3.203-5.793-6.471H118.3z"/>
<path style="fill:#FF9900;" d="M69.065,0v0.371v2.162c0,0,7.174,2.776,8.21,3.178c-1.035,0.4-8.21,3.158-8.21,3.158v2.532
	l11.168-4.537V4.54L69.065,0z"/>
</svg>
