<?xml version="1.0" encoding="iso-8859-1"?>
<!-- Generator: Adobe Illustrator 20.1.0, SVG Export Plug-In . SVG Version: 6.00 Build 0)  -->
<svg version="1.1" id="Layer_1" xmlns="http://www.w3.org/2000/svg" xmlns:xlink="http://www.w3.org/1999/xlink" x="0px" y="0px"
	 viewBox="0 0 154 154" style="enable-background:new 0 0 154 154;" xml:space="preserve">
<rect style="fill:#00B4E3;" width="154" height="154"/>
<rect x="28" y="29" style="fill:#00B4E3;" width="1" height="25"/>
<rect x="28" y="19" style="fill:#00B4E3;" width="1" height="2"/>
<rect x="104" y="29" style="fill:#00B4E3;" width="1" height="25"/>
<rect x="104" y="19" style="fill:#00B4E3;" width="1" height="2"/>
<polygon style="fill:#00B4E3;" points="103,107 87,71 83,71 67,107 71,107 85,75.5 99,107 "/>
<path style="fill:#00B4E3;" d="M121.5,107c-9.925,0-18-8.075-18-18s8.075-18,18-18s18,8.075,18,18S131.425,107,121.5,107z M121.5,74
	c-8.271,0-15,6.729-15,15s6.729,15,15,15s15-6.729,15-15S129.771,74,121.5,74z"/>
<path style="fill:#00B4E3;" d="M63,45v-7h0.008c-0.002-0.008-0.005-0.016-0.008-0.024V29h-1v6.49c-2.172-4.147-6.503-6.99-11.5-6.99
	c-7.168,0-13,5.832-13,13s5.832,13,13,13c4.997,0,9.328-2.843,11.5-6.99V62h1V45.024c0.002-0.008,0.005-0.016,0.008-0.024H63z
	 M61.976,45c-1.502,4.914-6.077,8.5-11.476,8.5c-6.617,0-12-5.383-12-12s5.383-12,12-12c5.4,0,9.975,3.586,11.476,8.5H62v7H61.976z"
	/>
<path style="fill:#00B4E3;" d="M93,29v17.168c-1.348,4.244-5.315,7.332-10,7.332c-5.333,0-9.736-4-10.4-9.155V29h-1v15
	c0,0-0.015,0.243,0,0.365L71.686,45c0.95,5.39,5.657,9.5,11.314,9.5c4.291,0,8.028-2.368,10-5.862V54h1V29H93z"/>
<path style="fill:#00B4E3;" d="M139.008,45H139V18h-1v17.456c-2.18-4.131-6.514-6.956-11.5-6.956c-7.168,0-13,5.832-13,13
	s5.832,13,13,13c4.997,0,9.328-2.843,11.5-6.99V54h1v-8.976C139.002,45.016,139.006,45.008,139.008,45z M126.5,53.5
	c-6.617,0-12-5.383-12-12s5.383-12,12-12c5.433,0,10.027,3.631,11.5,8.592v6.816C136.527,49.869,131.933,53.5,126.5,53.5z"/>
<rect x="28" y="29" style="fill:#FFFFFF;" width="1" height="25"/>
<rect x="28" y="19" style="fill:#FFFFFF;" width="1" height="2"/>
<rect x="104" y="29" style="fill:#FFFFFF;" width="1" height="25"/>
<rect x="104" y="19" style="fill:#FFFFFF;" width="1" height="2"/>
<polygon style="fill:#FFFFFF;" points="103,107 87,71 83,71 67,107 71,107 85,75.5 99,107 "/>
<path style="fill:#FFFFFF;" d="M121.5,107c-9.925,0-18-8.075-18-18s8.075-18,18-18s18,8.075,18,18S131.425,107,121.5,107z M121.5,74
	c-8.271,0-15,6.729-15,15s6.729,15,15,15s15-6.729,15-15S129.771,74,121.5,74z"/>
<path style="fill:#FFFFFF;" d="M63,45v-7h0.008c-0.002-0.008-0.005-0.016-0.008-0.024V29h-1v6.49c-2.172-4.147-6.503-6.99-11.5-6.99
	c-7.168,0-13,5.832-13,13s5.832,13,13,13c4.997,0,9.328-2.843,11.5-6.99V62h1V45.024c0.002-0.008,0.005-0.016,0.008-0.024H63z
	 M61.976,45c-1.502,4.914-6.077,8.5-11.476,8.5c-6.617,0-12-5.383-12-12s5.383-12,12-12c5.4,0,9.975,3.586,11.476,8.5H62v7H61.976z"
	/>
<path style="fill:#FFFFFF;" d="M93,29v17.168c-1.348,4.244-5.315,7.332-10,7.332c-5.333,0-9.736-4-10.4-9.155V29h-1v15
	c0,0-0.015,0.243,0,0.365L71.686,45c0.95,5.39,5.657,9.5,11.314,9.5c4.291,0,8.028-2.368,10-5.862V54h1V29H93z"/>
<path style="fill:#FFFFFF;" d="M139.008,45H139V18h-1v17.456c-2.18-4.131-6.514-6.956-11.5-6.956c-7.168,0-13,5.832-13,13
	s5.832,13,13,13c4.997,0,9.328-2.843,11.5-6.99V54h1v-8.976C139.002,45.016,139.006,45.008,139.008,45z M126.5,53.5
	c-6.617,0-12-5.383-12-12s5.383-12,12-12c5.433,0,10.027,3.631,11.5,8.592v6.816C136.527,49.869,131.933,53.5,126.5,53.5z"/>
<rect x="17" y="17" style="fill:#FFFFFF;" width="1" height="37"/>
</svg>
