<?xml version="1.0" encoding="iso-8859-1"?>
<!-- Generator: Adobe Illustrator 20.1.0, SVG Export Plug-In . SVG Version: 6.00 Build 0)  -->
<svg version="1.1" id="Layer_1" xmlns="http://www.w3.org/2000/svg" xmlns:xlink="http://www.w3.org/1999/xlink" x="0px" y="0px"
	 viewBox="0 0 205 45" style="enable-background:new 0 0 205 45;" xml:space="preserve">
<rect style="fill:#FFFFFF;" width="1" height="37"/>
<rect x="11" y="12" style="fill:#FFFFFF;" width="1" height="25"/>
<rect x="11" y="2" style="fill:#FFFFFF;" width="1" height="2"/>
<rect x="87" y="12" style="fill:#FFFFFF;" width="1" height="25"/>
<rect x="87" y="2" style="fill:#FFFFFF;" width="1" height="2"/>
<polygon style="fill:#FFFFFF;" points="168.5,37 152.5,1 148.5,1 132.5,37 136.5,37 150.5,5.5 164.5,37 "/>
<path style="fill:#FFFFFF;" d="M187,37c-9.925,0-18-8.075-18-18s8.075-18,18-18s18,8.075,18,18S196.925,37,187,37z M187,4
	c-8.271,0-15,6.729-15,15s6.729,15,15,15s15-6.729,15-15S195.271,4,187,4z"/>
<path style="fill:#FFFFFF;" d="M46,28v-7h0.008c-0.002-0.008-0.005-0.016-0.008-0.024V12h-1v6.49c-2.172-4.147-6.503-6.99-11.5-6.99
	c-7.168,0-13,5.832-13,13s5.832,13,13,13c4.997,0,9.328-2.843,11.5-6.99V45h1V28.024c0.002-0.008,0.005-0.016,0.008-0.024H46z
	 M44.976,28c-1.502,4.914-6.077,8.5-11.476,8.5c-6.617,0-12-5.383-12-12s5.383-12,12-12c5.4,0,9.975,3.586,11.476,8.5H45v7H44.976z"
	/>
<path style="fill:#FFFFFF;" d="M76,12v17.168c-1.348,4.244-5.315,7.332-10,7.332c-5.333,0-9.736-4-10.4-9.155V12h-1v15
	c0,0-0.015,0.243,0,0.365L54.686,28c0.95,5.39,5.657,9.5,11.314,9.5c4.291,0,8.028-2.368,10-5.862V37h1V12H76z"/>
<path style="fill:#FFFFFF;" d="M122.008,28H122V1h-1v17.456c-2.18-4.131-6.514-6.956-11.5-6.956c-7.168,0-13,5.832-13,13
	s5.832,13,13,13c4.997,0,9.328-2.843,11.5-6.99V37h1v-8.976C122.002,28.016,122.006,28.008,122.008,28z M109.5,36.5
	c-6.617,0-12-5.383-12-12s5.383-12,12-12c5.433,0,10.027,3.631,11.5,8.592v6.816C119.527,32.869,114.933,36.5,109.5,36.5z"/>
</svg>
